<?xml version="1.0" standalone="no"?>
<!DOCTYPE svg PUBLIC "-//W3C//DTD SVG 20010904//EN"
 "http://www.w3.org/TR/2001/REC-SVG-20010904/DTD/svg10.dtd">
<svg version="1.0" xmlns="http://www.w3.org/2000/svg"
 width="1080.000000pt" height="1080.000000pt" viewBox="0 0 1080.000000 1080.000000"
 preserveAspectRatio="xMidYMid meet">
<metadata>
Created by potrace 1.14, written by Peter Selinger 2001-2017
</metadata>
<g transform="translate(0.000000,1080.000000) scale(0.100000,-0.100000)"
fill="#000000" stroke="none">
<path d="M4995 10368 c-293 -21 -663 -90 -985 -183 -1139 -329 -2136 -1069
-2792 -2075 -356 -544 -608 -1170 -722 -1792 -65 -354 -71 -418 -71 -878 0
-279 4 -466 13 -545 123 -1151 618 -2193 1427 -3010 617 -623 1395 -1075 2245
-1305 728 -197 1528 -221 2280 -69 1481 299 2774 1286 3460 2639 486 961 643
2013 460 3098 -226 1338 -1022 2555 -2165 3307 -204 135 -329 207 -534 309
-565 283 -1208 460 -1836 506 -165 12 -609 11 -780 -2z m822 -78 c790 -64
1573 -333 2258 -778 1084 -704 1863 -1840 2125 -3099 73 -348 103 -661 104
-1058 0 -283 -8 -398 -45 -659 -243 -1693 -1378 -3161 -2957 -3823 -409 -171
-893 -300 -1302 -347 -361 -42 -797 -46 -1115 -11 -1129 123 -2145 608 -2946
1405 -397 396 -694 808 -939 1305 -344 699 -509 1421 -510 2236 0 563 122
1182 346 1752 109 278 309 657 481 912 471 700 1134 1286 1873 1655 652 326
1231 476 2015 524 94 6 471 -3 612 -14z"/>
<path d="M8034 7345 c-153 -28 -266 -73 -398 -158 -160 -105 -301 -245 -405
-405 -26 -39 -50 -70 -53 -66 -8 7 -65 -90 -133 -226 -32 -63 -58 -116 -60
-118 -1 -2 -83 29 -181 69 -493 197 -872 317 -1154 364 -138 23 -375 31 -463
15 -166 -29 -289 -91 -381 -190 l-55 -60 -112 0 c-282 0 -587 -84 -779 -216
-169 -115 -293 -268 -369 -453 -124 -299 -112 -714 28 -996 162 -325 482 -535
900 -589 321 -42 651 0 887 113 348 166 543 430 600 810 29 190 6 448 -54 621
-130 373 -487 634 -949 694 -57 7 -106 16 -110 20 -11 11 92 101 156 135 84
45 140 60 260 71 310 28 679 -59 1426 -337 154 -57 292 -108 307 -114 l27 -11
-20 -53 c-93 -248 -119 -558 -63 -754 8 -29 13 -55 11 -57 -6 -6 -41 77 -62
146 -9 30 -19 62 -22 70 -14 38 -43 -238 -43 -410 0 -330 60 -639 165 -852 47
-95 59 -106 52 -48 -30 233 -4 894 44 1115 8 37 8 37 4 -11 -3 -28 -12 -113
-21 -190 -24 -222 -29 -649 -10 -919 9 -126 21 -335 26 -464 9 -196 13 -236
27 -246 12 -9 14 -21 9 -48 -9 -46 13 -247 26 -247 6 0 8 11 4 24 -6 25 29
107 90 208 l34 56 -71 183 c-52 132 -74 178 -79 164 -8 -23 -16 30 -26 168
l-7 93 27 12 c37 17 113 89 119 113 4 15 -6 9 -32 -20 -21 -23 -44 -41 -51
-41 -7 0 4 18 23 39 37 41 67 91 67 112 0 6 -17 -13 -37 -44 -20 -31 -43 -59
-50 -61 -7 -3 5 21 27 53 95 139 148 297 190 561 54 344 73 447 100 542 16 57
27 104 26 105 -1 2 -34 -46 -72 -106 -38 -60 -70 -108 -72 -107 -4 4 127 247
200 373 76 131 116 228 130 320 l12 73 75 0 c250 1 500 97 667 254 62 60 69
60 122 12 60 -54 57 0 60 -966 2 -620 0 -900 -8 -936 -15 -72 -66 -129 -132
-149 -29 -8 -62 -15 -75 -15 -14 0 -23 -6 -23 -15 0 -13 96 -15 808 -15 l808
0 68 303 c37 166 70 310 72 320 4 12 0 17 -13 17 -15 0 -25 -16 -42 -64 -50
-142 -185 -312 -291 -366 -120 -61 -135 -63 -427 -68 l-273 -4 0 437 0 437
243 -4 c232 -3 244 -4 287 -27 89 -46 129 -105 137 -203 5 -48 9 -58 24 -58
18 0 19 16 19 360 0 353 0 360 -20 360 -17 0 -20 -7 -20 -38 0 -94 -56 -183
-142 -226 -51 -26 -54 -26 -290 -26 l-238 0 0 451 0 450 303 -3 c291 -3 304
-4 348 -26 103 -51 158 -133 168 -252 5 -60 9 -75 24 -78 16 -3 17 15 17 273
l0 277 -22 -6 c-126 -36 -168 -39 -787 -43 l-613 -4 21 30 c12 17 35 60 52 96
98 217 71 458 -67 585 -111 102 -266 139 -450 105z m269 -54 c82 -22 167 -77
207 -132 109 -152 101 -372 -21 -574 l-33 -55 -63 0 c-56 0 -63 -2 -63 -20 0
-17 7 -20 40 -20 22 0 40 -4 40 -9 0 -13 -109 -104 -170 -143 -138 -86 -279
-127 -467 -135 -124 -5 -133 -5 -133 13 0 10 -19 95 -41 188 -35 144 -40 181
-35 235 7 85 54 183 147 308 78 107 300 336 339 352 42 17 180 13 253 -8z
m-463 -56 c0 -2 -19 -14 -42 -26 -24 -12 -74 -41 -113 -66 -39 -24 -57 -32
-40 -18 32 28 174 115 187 115 5 0 8 -2 8 -5z m-230 -139 c0 -2 -8 -10 -17
-17 -16 -13 -17 -12 -4 4 13 16 21 21 21 13z m-40 -30 c0 -2 -8 -10 -17 -17
-16 -13 -17 -12 -4 4 13 16 21 21 21 13z m-2894 -642 c-36 -93 -73 -346 -49
-331 6 4 13 38 17 76 8 74 40 221 56 250 22 42 233 -18 348 -99 208 -146 324
-397 352 -760 27 -361 -52 -685 -216 -884 -136 -165 -299 -240 -519 -240 -290
1 -494 131 -625 399 -84 171 -119 347 -120 595 0 364 87 633 264 814 117 121
279 189 460 195 32 1 37 -2 32 -15z m2421 -626 c-3 -8 -6 -5 -6 6 -1 11 2 17
5 13 3 -3 4 -12 1 -19z m-10 -50 c-3 -7 -5 -2 -5 12 0 14 2 19 5 13 2 -7 2
-19 0 -25z m-10 -50 c-3 -7 -5 -2 -5 12 0 14 2 19 5 13 2 -7 2 -19 0 -25z
m-10 -50 c-3 -7 -5 -2 -5 12 0 14 2 19 5 13 2 -7 2 -19 0 -25z m-10 -55 c-3
-10 -5 -4 -5 12 0 17 2 24 5 18 2 -7 2 -21 0 -30z m-10 -60 c-3 -10 -5 -4 -5
12 0 17 2 24 5 18 2 -7 2 -21 0 -30z m142 -1878 c5 -12 1 -30 -12 -52 -25 -42
-31 -43 -11 0 15 32 14 36 -40 185 -31 84 -56 158 -56 165 0 7 25 -53 56 -133
30 -80 59 -154 63 -165z"/>
<path d="M944 6543 c27 -127 29 -219 31 -1067 0 -489 -2 -911 -5 -937 -12 -95
-79 -152 -193 -165 -35 -4 -56 -11 -54 -18 3 -8 141 -12 475 -14 396 -2 472 0
472 12 0 9 -18 16 -52 20 -82 11 -134 40 -166 94 l-27 47 -3 638 c-2 377 1
638 6 635 5 -1 285 -266 623 -588 938 -895 943 -900 962 -900 13 0 16 6 12 23
-26 104 -28 183 -32 1062 -3 665 -1 941 7 968 13 43 61 102 101 123 15 7 53
14 84 14 48 0 55 2 55 20 0 20 -5 20 -472 18 -413 -3 -473 -5 -473 -18 0 -11
17 -16 68 -21 55 -5 74 -11 104 -35 74 -60 72 -47 73 -539 1 -242 1 -529 0
-638 l0 -197 -782 745 c-460 438 -790 745 -801 745 -15 0 -17 -5 -13 -27z"/>
</g>
</svg>
